<svg width="800" height="800" viewBox="0 0 800 800" fill="none" xmlns="http://www.w3.org/2000/svg">
<path d="M50 303.332C50 214.658 50 170.321 67.2572 136.451C82.4373 106.659 106.659 82.4373 136.451 67.2572C170.321 50 214.658 50 303.332 50H496.667C585.342 50 629.68 50 663.548 67.2572C693.34 82.4373 717.562 106.659 732.743 136.451C750 170.321 750 214.658 750 303.332V496.667C750 585.342 750 629.68 732.743 663.548C717.562 693.34 693.34 717.562 663.548 732.743C629.68 750 585.342 750 496.667 750H303.332C214.658 750 170.321 750 136.451 732.743C106.659 717.562 82.4373 693.34 67.2572 663.548C50 629.68 50 585.342 50 496.667V303.332Z" fill="#B3B3B3"/>
<path d="M416.163 255.845L328.82 403.705L422.265 560.713C424.208 564.273 422.265 565.06 419.45 565.06H352.77C348.073 565.06 344.785 564.89 342.908 561.678C336.64 549.155 330.38 536.713 324.123 524.35C317.858 511.993 311.205 499.39 304.168 486.543C297.123 473.705 290.158 460.703 283.27 447.533C277.005 460.378 270.038 473.22 263.313 486.063C256.578 498.908 249.925 511.67 243.355 524.35C236.782 537.038 230.051 549.64 223.164 562.158C221.909 565.048 219.715 565.345 216.588 565.345H152.257C149.729 565.345 149.424 563.445 150.848 561.195L241.477 408.52L153.195 255.363C151.592 253.178 152.972 250.85 155.544 251.028H221.754C224.621 250.868 227.155 251.948 228.798 254.4C234.433 267.245 240.694 280.09 247.581 292.93C254.463 305.775 261.43 318.46 268.478 330.978C275.523 343.5 282.488 356.183 288.435 369.028C294.693 355.865 301.033 343.023 307.453 330.498C313.868 317.975 320.44 305.373 327.175 292.69C333.905 280.01 340.4 267.408 346.663 254.883C347.495 252.135 349.485 250.743 352.298 251.028H413.813C416.163 251.028 417.133 254.235 416.163 255.845Z" fill="#23253A"/>
<path d="M550.927 571.313C509.515 571.96 466.137 554.907 444.332 517.13C433.687 498.992 428.365 476.277 428.367 448.98C428.19 426.875 433.697 405.113 444.332 385.888C471.775 336.833 527.06 318.452 579.572 323.277V228.397C579.572 226.154 580.512 225.025 582.39 225.025H641.557C643.175 224.788 644.605 226.256 644.375 227.915V512.555C644.375 524.297 645.54 536 646.255 547.713C646.37 549.713 645.212 551.693 643.435 552.53C614.202 565.035 582.57 571.168 550.927 571.313ZM579.572 511.59V380.107C536.682 368.192 495.042 400.86 495.047 446.09C494.03 492.852 534.34 525.16 579.572 511.59Z" fill="#23253A"/>
</svg>
