<svg width="800" height="800" viewBox="0 0 800 800" fill="none" xmlns="http://www.w3.org/2000/svg">
<g clip-path="url(#clip0_235_13)">
<path d="M400 766.666L138.333 695L83.333 66.6665H716.666L661.666 695L400 766.666ZM200 643.333L400 698.333L600 643.333L643.333 133.333H156.666L200 643.333Z" fill="#B3B3B3"/>
<path d="M233.333 216.667H566.666L536.666 571.666L398.333 616.666L258.333 581.667L243.333 461.667H318.333V521.666L398.333 536.667L471.666 521.666V431.666H243.333L238.333 356.666C245.183 350.42 254.065 346.867 263.333 346.666C378.333 346.666 471.666 356.666 471.666 356.666V296.666H243.333L233.333 216.667Z" fill="#B3B3B3"/>
</g>
<defs>
<clipPath id="clip0_235_13">
<rect width="800" height="800" fill="white"/>
</clipPath>
</defs>
</svg>
