<svg width="800" height="800" viewBox="0 0 800 800" fill="none" xmlns="http://www.w3.org/2000/svg">
<g clip-path="url(#clip0_235_20)">
<path d="M587.899 300C602.16 287.531 613.591 272.158 621.427 254.912C629.263 237.665 633.322 218.943 633.333 200C633.333 126.483 573.516 66.6666 499.999 66.6666H299.999C226.483 66.6666 166.666 126.483 166.666 200C166.677 218.943 170.736 237.665 178.572 254.912C186.407 272.158 197.839 287.531 212.099 300C184.316 324.45 166.666 360.167 166.666 400C166.666 439.833 184.316 475.55 212.099 500C197.839 512.469 186.407 527.842 178.572 545.088C170.736 562.335 166.677 581.057 166.666 600C166.666 673.517 226.483 733.333 299.999 733.333C373.516 733.333 433.333 673.517 433.333 600V515.283C453.562 527.103 476.57 533.332 499.999 533.333C573.516 533.333 633.333 473.517 633.333 400C633.322 381.057 629.263 362.335 621.427 345.088C613.591 327.842 602.16 312.469 587.899 300V300ZM566.666 200C566.666 236.767 536.766 266.667 499.999 266.667H433.333V133.333H499.999C536.766 133.333 566.666 163.233 566.666 200ZM233.333 200C233.333 163.233 263.233 133.333 299.999 133.333H366.666V266.667H299.999C263.233 266.667 233.333 236.767 233.333 200ZM233.333 400C233.333 363.233 263.233 333.333 299.999 333.333H366.666V466.667H299.999C263.233 466.667 233.333 436.767 233.333 400ZM366.666 600C366.666 636.767 336.766 666.667 299.999 666.667C263.233 666.667 233.333 636.767 233.333 600C233.333 563.233 263.233 533.333 299.999 533.333H366.666V600ZM499.999 466.667C463.233 466.667 433.333 436.767 433.333 400C433.333 363.233 463.233 333.333 499.999 333.333C536.766 333.333 566.666 363.233 566.666 400C566.666 436.767 536.766 466.667 499.999 466.667Z" fill="#B3B3B3"/>
</g>
<defs>
<clipPath id="clip0_235_20">
<rect width="800" height="800" fill="white"/>
</clipPath>
</defs>
</svg>
