<svg width="77" height="87" viewBox="0 0 77 87" fill="none" xmlns="http://www.w3.org/2000/svg">
<path d="M29.94 62.98V52.6H12.96V64.72L16.44 64.9V70H1.91998V65.14L3.89998 64.96C5.05998 64.84 5.63998 64.28 5.63998 63.28V35.38L2.21998 35.2V30.1H16.74V34.96L14.76 35.14C14.12 35.22 13.66 35.4 13.38 35.68C13.1 35.92 12.96 36.4 12.96 37.12V46.42H29.94V35.38L26.52 35.2V30.1H41.04V34.96L39.06 35.14C37.9 35.26 37.32 35.9 37.32 37.06V64.72L40.74 64.9V70H26.22V65.14L28.2 64.96C28.8 64.88 29.24 64.72 29.52 64.48C29.8 64.2 29.94 63.7 29.94 62.98ZM56.0348 63.28V54.76L45.8348 35.38L43.0148 35.2V30.1H57.6548V34.96L55.8548 35.14C55.2148 35.18 54.7948 35.42 54.5948 35.86C54.4348 36.3 54.5148 36.84 54.8348 37.48L59.9348 47.92H60.1748L66.7148 35.44L63.7148 35.2V30.1H76.6148V34.96L74.8148 35.14C74.0548 35.22 73.3748 35.82 72.7748 36.94L63.3548 54.76V64.72L68.0348 64.9V70H51.1148V65.14L54.2948 64.96C55.4548 64.88 56.0348 64.32 56.0348 63.28Z" fill="#F2F2F2"/>
<path d="M27.1295 10.8058L28.0095 12.7638L22.0035 15.5358L28.0535 18.4398L27.1295 20.4198L19.0775 16.4598V14.7438L27.1295 10.8058Z" fill="#F2F2F2"/>
<g clip-path="url(#clip0_241_13)">
<path d="M39.6244 5.33269C39.4242 5.46685 39.3265 5.64034 38.7554 6.87109L38.1972 8.07416L40.5861 9.18532L42.9729 10.3011L43.5516 9.05988C44.1971 7.67563 44.2232 7.5895 44.0927 7.23091C43.9462 6.82835 43.9173 6.81206 42.1119 5.96739C40.3804 5.15715 40.2712 5.12027 39.9138 5.21203C39.8188 5.23513 39.6859 5.29115 39.6244 5.33269Z" fill="#F2F2F2"/>
<path d="M34.2425 16.555L30.9355 23.647L31.5733 25.3993L32.2098 27.1483L33.9622 26.5105L35.7111 25.8739L39.0203 18.7773L42.3274 11.6853L39.9372 10.5708L37.5517 9.45842L34.2425 16.555Z" fill="#F2F2F2"/>
</g>
<path d="M48.0483 10.8058L47.1683 12.7638L53.1743 15.5358L47.1243 18.4398L48.0483 20.4198L56.1003 16.4598V14.7438L48.0483 10.8058Z" fill="#F2F2F2"/>
<defs>
<clipPath id="clip0_241_13">
<rect width="18" height="18" fill="white" transform="translate(26.0535 10.2338) rotate(-20)"/>
</clipPath>
</defs>
</svg>
