<svg width="77" height="87" viewBox="0 0 77 87" fill="none" xmlns="http://www.w3.org/2000/svg">
<path d="M29.94 68.0283V57.6483H12.96V69.7683L16.44 69.9483V75.0483H1.91998V70.1883L3.89998 70.0083C5.05998 69.8883 5.63998 69.3283 5.63998 68.3283V40.4283L2.21998 40.2483V35.1483H16.74V40.0083L14.76 40.1883C14.12 40.2683 13.66 40.4483 13.38 40.7283C13.1 40.9683 12.96 41.4483 12.96 42.1683V51.4683H29.94V40.4283L26.52 40.2483V35.1483H41.04V40.0083L39.06 40.1883C37.9 40.3083 37.32 40.9483 37.32 42.1083V69.7683L40.74 69.9483V75.0483H26.22V70.1883L28.2 70.0083C28.8 69.9283 29.24 69.7683 29.52 69.5283C29.8 69.2483 29.94 68.7483 29.94 68.0283ZM56.0348 68.3283V59.8083L45.8348 40.4283L43.0148 40.2483V35.1483H57.6548V40.0083L55.8548 40.1883C55.2148 40.2283 54.7948 40.4683 54.5948 40.9083C54.4348 41.3483 54.5148 41.8883 54.8348 42.5283L59.9348 52.9683H60.1748L66.7148 40.4883L63.7148 40.2483V35.1483H76.6148V40.0083L74.8148 40.1883C74.0548 40.2683 73.3748 40.8683 72.7748 41.9883L63.3548 59.8083V69.7683L68.0348 69.9483V75.0483H51.1148V70.1883L54.2948 70.0083C55.4548 69.9283 56.0348 69.3683 56.0348 68.3283Z" fill="#F2F2F2"/>
<path d="M27.1295 10.8058L28.0095 12.7638L22.0035 15.5358L28.0535 18.4398L27.1295 20.4198L19.0775 16.4598V14.7438L27.1295 10.8058Z" fill="#F2F2F2"/>
<g clip-path="url(#clip0_241_13)">
<path d="M39.6244 5.33269C39.4242 5.46685 39.3265 5.64034 38.7554 6.87109L38.1972 8.07416L40.5861 9.18532L42.9729 10.3011L43.5516 9.05988C44.1971 7.67563 44.2232 7.5895 44.0927 7.23091C43.9462 6.82835 43.9173 6.81206 42.1119 5.96739C40.3804 5.15715 40.2712 5.12027 39.9138 5.21203C39.8188 5.23513 39.6859 5.29115 39.6244 5.33269Z" fill="#F2F2F2"/>
<path d="M34.2425 16.555L30.9355 23.647L31.5733 25.3993L32.2098 27.1483L33.9622 26.5105L35.7111 25.8739L39.0203 18.7773L42.3274 11.6853L39.9372 10.5708L37.5517 9.45842L34.2425 16.555Z" fill="#F2F2F2"/>
</g>
<path d="M48.0483 10.8058L47.1683 12.7638L53.1743 15.5358L47.1243 18.4398L48.0483 20.4198L56.1003 16.4598V14.7438L48.0483 10.8058Z" fill="#F2F2F2"/>
<defs>
<clipPath id="clip0_241_13">
<rect width="18" height="18" fill="white" transform="translate(26.0535 10.2338) rotate(-20)"/>
</clipPath>
</defs>
</svg>
