<svg width="800" height="800" viewBox="0 0 800 800" fill="none" xmlns="http://www.w3.org/2000/svg">
<g clip-path="url(#clip0_235_31)">
<path d="M390.9 1.62767e-05C358.667 0.0333496 327.1 2.86668 296.433 8.26668L299.7 7.80002C218.933 22.0667 204.3 51.9334 204.3 107V179.733H395.166V203.967H132.7C132.033 203.967 131.267 203.933 130.5 203.933C72.5999 203.933 24.3665 245.233 13.5999 299.967L13.4665 300.733C4.9332 329.8 0.0332031 363.2 0.0332031 397.733C0.0332031 432.267 4.9332 465.667 14.0999 497.233L13.4665 494.7C27.0332 551.2 59.4332 591.433 114.8 591.433H180.433V504.233C181.933 439.133 234.5 386.8 299.567 385.667H299.667H490.3C543.1 385.233 585.733 342.367 585.733 289.5C585.733 289.2 585.733 288.933 585.733 288.633V288.667V106.933C582.267 54.9 541.933 13.2667 490.8 7.76668L490.333 7.73335C461.467 2.76668 428.233 -0.0666504 394.367 -0.0666504C393.167 -0.0666504 392 -0.0666504 390.8 -0.0666504H390.967L390.9 1.62767e-05ZM287.7 58.5H288.267C308.367 58.5 324.633 74.8 324.633 94.8667C324.633 114.933 308.333 131.233 288.267 131.233C268.233 131.233 251.967 115 251.9 94.9667C251.9 94.9 251.9 94.8 251.9 94.7C251.9 74.8334 267.9 58.7 287.7 58.5H287.733H287.7Z" fill="#B3B3B3"/>
<path d="M609.566 203.967V288.7C608.833 354.6 556.1 407.967 490.5 409.7H490.333H299.7C246.9 410.8 204.5 453.767 204.3 506.667V688.433C204.3 740.133 249.266 770.567 299.7 785.433C328.2 794.667 361 800 395.033 800C429.066 800 461.866 794.667 492.6 784.8L490.333 785.433C538.333 771.533 585.733 743.5 585.733 688.433V615.633H395.1V591.4H681.166C736.633 591.4 757.3 552.7 776.6 494.667C785.933 465.667 791.3 432.3 791.3 397.667C791.3 363.033 785.933 329.667 775.966 298.367L776.6 300.7C762.9 245.5 736.6 203.967 681.166 203.967H609.566ZM502.366 664.2H502.933C523.033 664.2 539.3 680.5 539.3 700.567C539.3 720.633 523 736.933 502.933 736.933C482.833 736.933 466.566 720.633 466.566 700.567C466.566 700.533 466.566 700.467 466.566 700.433C466.566 700.367 466.566 700.267 466.566 700.2C466.566 680.367 482.566 664.3 502.366 664.2V664.2Z" fill="#B3B3B3"/>
</g>
<defs>
<clipPath id="clip0_235_31">
<rect width="800" height="800" fill="white"/>
</clipPath>
</defs>
</svg>
