<svg width="800" height="800" viewBox="0 0 800 800" fill="none" xmlns="http://www.w3.org/2000/svg">
<g clip-path="url(#clip0_235_34)">
<path d="M404.124 420.936C404.124 420.936 403.489 420.936 402.855 420.936C380.65 485.646 358.446 550.357 336.241 615.067C383.188 628.39 428.866 627.121 473.91 611.895C450.436 547.819 427.597 484.378 404.124 420.936Z" fill="#B3B3B3"/>
<path d="M195.4 309.913C194.766 309.913 194.766 309.913 194.131 309.913C169.389 368.914 168.12 428.549 193.497 488.184C215.067 538.937 251.229 576.368 300.713 601.745C301.348 601.745 301.348 601.11 301.982 601.11C266.455 503.41 230.927 406.979 195.4 309.913Z" fill="#B3B3B3"/>
<path d="M537.351 335.924C532.276 326.408 526.566 317.526 520.857 308.01C515.781 299.128 511.975 289.611 510.706 279.461C508.168 258.525 522.125 238.858 543.061 235.052C544.964 234.417 547.502 234.417 551.309 233.783C489.136 181.761 419.984 163.362 342.585 183.029C287.391 196.987 244.885 228.707 211.896 276.923C223.949 276.923 234.735 276.923 244.885 276.923C258.208 276.289 271.531 275.02 284.853 274.385C291.198 273.751 295.004 276.923 295.639 281.998C296.273 287.708 293.735 291.515 286.757 292.149C284.853 292.784 282.95 292.784 281.047 292.784C274.703 293.418 268.993 294.052 262.014 294.687C289.294 375.892 316.574 456.463 343.22 536.4C344.489 535.765 345.123 535.131 345.123 534.496C360.984 487.55 376.844 440.603 392.07 393.021C392.704 391.118 392.07 387.946 391.436 386.043C381.285 356.86 370.5 328.311 359.715 299.128C358.446 295.321 356.543 294.052 352.736 294.052C346.392 294.052 340.048 292.784 333.704 292.149C328.628 291.515 326.091 287.708 326.091 282.633C326.725 277.558 329.897 274.385 334.972 274.385C337.51 274.385 339.413 275.02 341.951 275.02C366.059 275.654 390.801 276.289 414.909 276.923C427.597 276.923 440.92 275.654 453.608 275.02C459.318 275.02 463.125 278.192 463.759 283.267C464.394 288.343 461.221 292.149 456.146 292.784C453.608 293.418 451.705 293.418 449.168 293.418C442.823 294.052 436.479 294.687 430.135 295.321C457.415 375.892 484.06 455.194 511.34 536.4C511.975 534.496 512.609 533.862 512.609 533.228C524.029 495.797 534.814 458.366 546.233 420.936C555.115 391.118 552.577 362.569 537.351 335.924Z" fill="#B3B3B3"/>
<path d="M598.89 0.317139H200.476C90.0872 0.317139 0 90.4044 0 200.793V599.841C0 709.596 90.0872 799.683 200.476 799.683H599.524C709.913 799.683 800 709.595 800 599.207V200.793C799.366 90.4044 709.278 0.317139 598.89 0.317139ZM647.105 412.688C647.105 414.592 647.105 415.86 647.105 417.764C645.202 450.753 636.955 482.474 621.729 511.657C581.761 587.153 520.222 631.562 435.21 645.519C427.597 646.788 419.984 647.423 412.371 647.423H386.994C385.726 647.423 383.822 647.423 381.919 647.423C348.929 645.519 317.843 637.906 289.294 622.68C213.164 582.712 168.755 521.174 154.798 436.162C152.895 427.914 152.26 420.936 152.26 412.688V387.312C152.26 386.043 152.26 384.14 152.26 382.236C154.163 348.612 162.411 316.891 178.271 287.708C218.24 212.847 279.778 169.072 363.521 155.115C371.134 153.846 379.381 153.212 386.994 153.212H412.371C414.274 153.212 415.543 153.212 417.447 153.212C449.802 155.115 480.888 162.728 510.071 177.954C586.201 217.922 631.245 279.461 645.202 365.107C646.471 372.72 647.105 380.333 647.105 387.946V412.688V412.688Z" fill="#B3B3B3"/>
<path d="M597.621 294.052C598.255 311.182 598.255 327.042 595.717 343.537C592.545 361.935 586.836 379.699 580.491 397.462C558.287 459.001 537.351 520.539 516.415 582.078C515.146 585.25 513.878 589.056 513.243 592.228C513.878 592.228 513.878 592.863 514.512 592.863C574.782 555.432 611.578 501.507 622.363 431.086C629.341 382.871 621.094 337.193 597.621 294.052Z" fill="#B3B3B3"/>
</g>
<defs>
<clipPath id="clip0_235_34">
<rect width="800" height="800" fill="white"/>
</clipPath>
</defs>
</svg>
